<svg xmlns="http://www.w3.org/2000/svg" viewBox="0 0 1600 60" preserveAspectRatio="none"><path d="M0 60 L0.0 13.8 L24.6 36.5 L36.3 26.8 L52.1 32.5 L75.5 12.4 L82.1 39.1 L97.6 36.4 L103.7 25.0 L125.6 17.2 L152.4 41.5 L159.0 9.9 L176.9 42.8 L191.3 16.8 L206.6 10.0 L217.5 24.8 L234.4 17.4 L245.5 16.9 L261.6 19.4 L268.1 39.2 L286.3 32.1 L296.4 44.7 L321.3 13.4 L334.6 35.0 L356.3 42.7 L371.6 38.9 L392.3 19.9 L411.2 40.8 L435.9 27.2 L454.8 10.2 L466.2 37.7 L481.3 15.2 L499.3 34.3 L520.2 22.5 L535.8 27.3 L559.0 27.8 L573.6 26.6 L580.3 10.6 L601.7 44.4 L620.8 23.2 L630.5 27.1 L658.1 36.7 L676.0 40.0 L687.1 27.5 L714.1 29.8 L730.2 18.7 L748.2 43.5 L754.4 37.2 L778.4 40.9 L800.7 38.1 L818.1 29.2 L833.5 11.0 L858.6 29.5 L869.0 27.2 L885.7 21.8 L899.3 28.4 L919.0 31.0 L935.1 10.0 L946.2 15.4 L965.0 40.0 L988.6 37.7 L1012.5 18.2 L1037.1 33.2 L1044.9 9.6 L1051.2 36.2 L1062.7 12.9 L1082.4 21.4 L1090.0 14.7 L1107.6 15.1 L1119.6 34.6 L1135.6 20.6 L1152.0 9.9 L1166.5 24.2 L1176.6 12.9 L1202.4 27.4 L1213.0 30.8 L1237.0 9.7 L1243.4 14.3 L1265.2 14.8 L1286.7 33.4 L1304.7 16.9 L1332.2 37.7 L1349.5 17.0 L1369.8 23.2 L1388.5 20.6 L1408.4 11.1 L1420.9 43.8 L1446.2 20.0 L1471.1 20.2 L1497.7 35.8 L1512.9 18.1 L1519.1 40.6 L1525.9 38.5 L1553.1 29.5 L1562.9 40.2 L1590.3 34.3 L1600.0 23.3 L1600 60 Z" fill="#87abd8"/></svg>