<svg xmlns="http://www.w3.org/2000/svg" viewBox="0 0 1600 60" preserveAspectRatio="none"><path d="M0 60 L0.0 17.6 L18.0 22.3 L37.3 31.5 L44.7 9.5 L69.1 18.3 L80.3 44.8 L96.6 39.1 L113.1 32.0 L122.4 31.9 L147.5 27.8 L169.8 33.2 L177.2 36.3 L196.2 19.8 L202.9 40.2 L219.3 34.9 L244.7 34.7 L270.9 23.2 L294.5 25.0 L321.1 40.6 L329.3 13.9 L340.0 43.8 L355.6 31.6 L368.3 27.3 L382.7 21.6 L401.6 30.0 L427.5 33.6 L453.9 39.8 L481.7 33.2 L491.3 40.0 L518.6 41.6 L537.1 34.7 L547.7 38.9 L566.3 19.3 L573.7 39.7 L601.5 12.2 L625.1 23.8 L634.4 19.6 L657.4 40.4 L664.3 31.1 L671.3 34.9 L684.6 40.7 L712.2 27.2 L740.1 20.1 L747.8 30.6 L754.5 16.1 L769.5 31.0 L778.9 10.5 L804.0 20.3 L831.1 41.3 L845.4 25.6 L862.9 32.2 L882.0 29.1 L901.6 42.9 L918.8 24.5 L940.6 17.6 L953.2 44.2 L970.7 28.7 L977.0 23.9 L995.7 9.7 L1015.3 31.8 L1022.6 31.6 L1038.8 33.5 L1052.6 34.5 L1074.8 9.8 L1082.2 33.3 L1109.4 18.0 L1125.4 30.3 L1138.4 22.1 L1151.3 22.3 L1170.4 19.8 L1184.7 36.8 L1191.3 29.5 L1213.5 20.2 L1224.4 37.9 L1235.6 15.7 L1251.2 34.1 L1259.5 20.6 L1272.8 39.0 L1288.4 39.8 L1298.2 21.1 L1318.5 40.9 L1334.4 17.1 L1343.1 28.1 L1353.3 38.0 L1377.7 15.6 L1389.8 38.1 L1409.9 38.0 L1423.5 13.7 L1436.0 37.6 L1447.9 21.5 L1463.1 24.1 L1478.1 42.1 L1487.5 9.2 L1514.3 40.7 L1542.0 24.6 L1568.9 42.4 L1579.8 35.8 L1600.0 31.9 L1600 60 Z" fill="#3b2fe0"/></svg>